# xmcd CD database file
#
# Track frame offsets:
#	187
#	12245
#	26120
#	35977
#	48830
#	61442
#	72607
#	81452
#	94597
#	105292
#	116142
#	126427
#	133822
#	145145
#	155890
#	164802
#
# Disc length: 2337 seconds
#
# Revision: 4
# Processed by: cddbd v1.5.1PL0 Copyright (c) Steve Scherf et al.
# Submitted via: CDex 1.51
#
DISCID=f5091f10
DTITLE=Patsy Cline - Patsy Cline - Vol.2
DYEAR=1900
DGENRE=Country
TTITLE0=Today, Tomorrow and Forever
TTITLE1=A Church, A Courtroom and Then Goodbye
TTITLE2=I'm Blue Again
TTITLE3=Yes, I Understand
TTITLE4=Fingerprints
TTITLE5=I Can't Forget You
TTITLE6=Ain't No Wheels On This Ship
TTITLE7=If I Could See The World Through The Eyes Of A Child
TTITLE8=I Can See An Angel Walking
TTITLE9=I Cried All The Way To The Alter
TTITLE10=The Heart You Break May Be Your Own
TTITLE11=Stop, Look and Listen
TTITLE12=I'm Hungry, Hungry For Your Love
TTITLE13=I Don't Wanna
TTITLE14=Try Again
TTITLE15=That Wonderful Someone
EXTD=
EXTT0=
EXTT1=
EXTT2=
EXTT3=
EXTT4=
EXTT5=
EXTT6=
EXTT7=
EXTT8=
EXTT9=
EXTT10=
EXTT11=
EXTT12=
EXTT13=
EXTT14=
EXTT15=
PLAYORDER=
